<?xml version="1.0" standalone="no"?>
<!DOCTYPE svg PUBLIC "-//W3C//DTD SVG 20010904//EN"
 "http://www.w3.org/TR/2001/REC-SVG-20010904/DTD/svg10.dtd">
<svg version="1.0" xmlns="http://www.w3.org/2000/svg"
 width="512.000000pt" height="512.000000pt" viewBox="0 0 512.000000 512.000000"
 preserveAspectRatio="xMidYMid meet">

<g transform="translate(0.000000,512.000000) scale(0.100000,-0.100000)"
fill="#000000" stroke="none">
<path d="M1300 5078 c-36 -18 -49 -33 -64 -69 -17 -42 -17 -51 -5 -90 12 -36
27 -53 90 -101 106 -79 173 -157 224 -263 71 -144 75 -181 75 -657 0 -394 1
-414 20 -446 59 -97 191 -92 242 9 15 28 18 62 18 197 l0 162 23 0 c49 0 183
41 274 85 209 98 317 207 418 417 50 104 85 227 85 299 0 39 -5 55 -27 79 -41
44 -74 50 -173 30 -170 -35 -334 -119 -459 -236 -42 -40 -89 -95 -106 -123
-16 -28 -33 -51 -37 -51 -5 0 -8 17 -8 38 0 53 -34 185 -69 270 -75 180 -258
390 -396 453 -52 24 -72 24 -125 -3z"/>
<path d="M1035 4250 c-469 -52 -853 -451 -974 -1011 -59 -277 -51 -583 23
-864 39 -144 40 -147 73 -133 15 6 78 12 138 12 119 1 192 -17 284 -69 24 -14
45 -24 46 -23 1 2 15 27 31 57 59 111 184 210 324 257 76 26 244 26 320 0 134
-45 255 -138 317 -243 65 -111 76 -162 81 -366 l4 -187 692 0 691 0 47 63
c119 159 203 321 267 513 211 633 80 1315 -328 1707 -117 112 -241 194 -241
158 0 -18 -99 -159 -155 -219 -109 -118 -316 -252 -451 -292 l-41 -12 -6 -87
c-11 -183 -105 -318 -267 -383 -78 -31 -222 -31 -300 0 -112 45 -196 129 -242
242 -22 54 -23 66 -26 461 l-3 407 -52 6 c-111 12 -185 14 -252 6z"/>
<path d="M1046 2204 c-34 -11 -64 -31 -102 -68 -89 -89 -84 -33 -84 -1016 0
-983 -5 -927 84 -1016 114 -113 278 -113 392 0 89 89 84 33 84 1016 0 983 5
927 -84 1016 -80 79 -178 102 -290 68z"/>
<path d="M3886 2204 c-34 -11 -64 -31 -102 -68 -89 -89 -84 -33 -84 -1016 0
-983 -5 -927 84 -1016 114 -113 278 -113 392 0 89 89 84 33 84 1016 0 983 5
927 -84 1016 -80 79 -178 102 -290 68z"/>
<path d="M206 1964 c-34 -11 -64 -31 -102 -68 -87 -87 -84 -62 -84 -776 0
-713 -3 -689 84 -776 114 -113 278 -113 392 0 87 87 84 63 84 776 0 713 3 689
-84 776 -80 79 -178 102 -290 68z"/>
<path d="M4726 1964 c-34 -11 -64 -31 -102 -68 -87 -87 -84 -62 -84 -776 0
-713 -3 -689 84 -776 114 -113 278 -113 392 0 87 87 84 63 84 776 0 713 3 689
-84 776 -80 79 -178 102 -290 68z"/>
<path d="M1700 1120 l0 -280 860 0 860 0 0 280 0 280 -860 0 -860 0 0 -280z"/>
</g>
</svg>
