<?xml version="1.0" standalone="no"?>
<!DOCTYPE svg PUBLIC "-//W3C//DTD SVG 20010904//EN"
 "http://www.w3.org/TR/2001/REC-SVG-20010904/DTD/svg10.dtd">
<svg version="1.0" xmlns="http://www.w3.org/2000/svg"
 width="512.000000pt" height="512.000000pt" viewBox="0 0 512.000000 512.000000"
 preserveAspectRatio="xMidYMid meet">

<g transform="translate(0.000000,512.000000) scale(0.100000,-0.100000)"
fill="#000000" stroke="none">
<path d="M2500 5109 c-45 -18 -61 -42 -137 -194 -42 -82 -80 -153 -85 -156 -5
-3 -84 -17 -175 -29 -182 -26 -215 -39 -245 -100 -21 -42 -23 -95 -4 -130 8
-14 69 -80 137 -147 l123 -121 -27 -154 c-32 -185 -33 -223 -7 -266 21 -35 87
-71 130 -72 14 0 98 37 188 82 l162 83 163 -83 c89 -45 173 -82 187 -82 44 1
106 36 128 72 28 46 28 79 -5 266 l-27 155 122 119 c67 65 129 133 138 150 20
39 14 110 -13 147 -35 46 -72 58 -242 83 -91 12 -169 28 -174 33 -5 6 -44 77
-86 160 -47 91 -86 157 -103 168 -31 23 -112 32 -148 16z"/>
<path d="M695 3880 c-37 -15 -66 -57 -136 -201 -39 -79 -71 -145 -73 -146 -1
-1 -76 -14 -168 -27 -185 -28 -204 -34 -234 -67 -45 -50 -55 -98 -34 -156 6
-15 68 -85 137 -154 l125 -126 -27 -163 c-33 -200 -31 -231 24 -282 39 -37 62
-44 121 -39 14 1 94 38 178 82 l152 80 153 -80 c83 -44 163 -81 177 -82 59 -5
82 2 121 39 55 51 57 82 24 282 l-27 163 125 126 c69 69 131 139 137 154 31
85 -16 173 -105 195 -22 6 -105 20 -184 32 -80 11 -146 21 -147 23 -1 1 -34
66 -72 144 -83 168 -89 178 -128 198 -31 16 -106 19 -139 5z"/>
<path d="M4295 3880 c-37 -15 -66 -57 -136 -201 -39 -79 -71 -145 -73 -146 -1
-1 -76 -14 -168 -27 -185 -28 -204 -34 -234 -67 -45 -50 -55 -98 -34 -156 6
-15 68 -85 137 -154 l125 -126 -27 -163 c-33 -200 -31 -231 24 -282 39 -37 62
-44 121 -39 14 1 94 38 178 82 l152 80 153 -80 c83 -44 163 -81 177 -82 59 -5
82 2 121 39 55 51 57 82 24 282 l-27 163 125 126 c69 69 131 139 137 154 31
85 -16 173 -105 195 -22 6 -105 20 -184 32 -80 11 -146 21 -147 23 -1 1 -34
66 -72 144 -83 168 -89 178 -128 198 -31 16 -106 19 -139 5z"/>
<path d="M2455 3586 c-126 -32 -246 -128 -298 -238 -60 -128 -66 -30 102
-1708 167 -1673 154 -1581 230 -1620 51 -25 91 -25 142 0 76 39 63 -53 230
1620 139 1384 151 1521 141 1582 -17 97 -56 173 -127 244 -112 113 -269 158
-420 120z"/>
<path d="M1255 2386 c-84 -21 -147 -57 -211 -121 -124 -124 -165 -303 -106
-465 11 -30 220 -437 464 -905 423 -811 445 -851 483 -872 50 -28 94 -29 145
-3 41 21 80 80 80 121 0 51 -313 1918 -330 1965 -73 210 -307 334 -525 280z"/>
<path d="M3657 2389 c-141 -33 -271 -150 -321 -289 -14 -42 -326 -1912 -326
-1959 0 -41 39 -100 80 -121 51 -26 95 -25 145 3 38 21 58 57 418 747 551
1056 535 1023 549 1108 39 233 -116 461 -350 511 -61 13 -140 13 -195 0z"/>
<path d="M78 1489 c-43 -22 -78 -81 -78 -129 0 -76 74 -150 150 -150 76 0 150
74 150 150 0 50 -35 107 -80 130 -49 25 -94 25 -142 -1z"/>
<path d="M4898 1489 c-43 -22 -78 -81 -78 -129 0 -50 35 -107 80 -130 50 -25
90 -25 140 0 45 23 80 80 80 130 0 50 -35 107 -80 130 -49 25 -94 25 -142 -1z"/>
<path d="M538 1029 c-43 -22 -78 -81 -78 -129 0 -17 9 -47 19 -68 24 -46 774
-794 818 -816 122 -61 258 75 197 197 -22 44 -770 794 -816 818 -47 24 -93 24
-140 -2z"/>
<path d="M4445 1034 c-44 -23 -793 -772 -816 -816 -24 -48 -24 -89 1 -138 35
-69 124 -98 193 -64 44 22 794 770 818 816 24 48 24 89 -1 138 -35 69 -127 99
-195 64z"/>
</g>
</svg>
