<?xml version="1.0" standalone="no"?>
<!DOCTYPE svg PUBLIC "-//W3C//DTD SVG 20010904//EN"
 "http://www.w3.org/TR/2001/REC-SVG-20010904/DTD/svg10.dtd">
<svg version="1.0" xmlns="http://www.w3.org/2000/svg"
 width="512.000000pt" height="512.000000pt" viewBox="0 0 512.000000 512.000000"
 preserveAspectRatio="xMidYMid meet">

<g transform="translate(0.000000,512.000000) scale(0.100000,-0.100000)"
fill="#000000" stroke="none">
<path d="M1113 4809 c-405 -47 -774 -301 -965 -665 -104 -197 -143 -358 -143
-589 1 -229 41 -395 143 -590 74 -140 139 -218 386 -465 l226 -225 630 630
630 630 263 -262 c314 -313 322 -318 482 -318 90 0 106 3 155 28 76 39 143
108 177 181 24 53 28 73 28 151 0 81 -3 97 -33 160 -31 66 -64 101 -530 566
-437 436 -509 504 -598 563 -255 168 -553 240 -851 205z"/>
<path d="M3721 4699 c-195 -21 -387 -91 -562 -204 -53 -34 -228 -179 -329
-272 -12 -11 18 -46 222 -251 140 -140 252 -262 275 -298 87 -136 123 -334 89
-494 -25 -120 -94 -247 -179 -333 -132 -132 -260 -187 -447 -195 -139 -5 -206
9 -330 70 -77 37 -102 58 -260 214 l-176 173 -571 -572 c-544 -545 -572 -575
-593 -632 -29 -77 -31 -180 -6 -253 24 -70 109 -162 184 -199 51 -25 67 -28
162 -28 95 0 110 3 157 27 l51 27 -34 -57 c-19 -31 -39 -75 -45 -97 -17 -60
-6 -191 19 -248 31 -70 111 -149 185 -183 54 -25 74 -29 152 -29 77 0 98 4
148 27 31 15 57 23 57 18 0 -5 -5 -12 -10 -15 -20 -12 -58 -101 -70 -161 -50
-253 198 -484 450 -420 85 22 126 50 265 180 l116 109 -154 156 c-163 165
-190 199 -227 296 -34 86 -34 244 0 330 71 184 217 301 404 324 l51 6 12 70
c16 85 67 194 119 254 75 86 226 161 325 161 36 0 39 2 39 28 0 42 27 137 56
196 56 116 168 208 297 248 57 17 87 20 172 16 93 -4 110 -8 181 -42 71 -33
96 -55 275 -233 l198 -196 158 145 c274 252 343 333 431 505 56 111 91 210
118 333 25 118 25 372 0 490 -125 580 -600 986 -1186 1013 -58 3 -143 1 -189
-4z"/>
<path d="M3615 2371 c-61 -38 -105 -108 -105 -168 0 -82 13 -99 254 -341 127
-129 249 -244 271 -257 99 -58 219 -23 270 79 29 57 32 111 9 164 -19 46 -462
495 -516 523 -50 25 -142 26 -183 0z"/>
<path d="M3195 1903 c-11 -2 -30 -6 -42 -9 -58 -12 -132 -112 -133 -179 0 -83
12 -100 249 -339 124 -126 246 -241 270 -257 120 -77 285 1 299 140 9 92 -1
107 -257 364 -130 131 -252 247 -271 256 -39 20 -85 30 -115 24z"/>
<path d="M2705 1415 c-5 -2 -22 -6 -37 -9 -65 -15 -138 -112 -138 -186 0 -73
33 -117 258 -344 119 -120 237 -231 261 -247 120 -77 285 0 299 140 9 92 -1
107 -257 364 -130 131 -252 247 -271 256 -35 19 -97 32 -115 26z"/>
</g>
</svg>
