<?xml version="1.0" standalone="no"?>
<!DOCTYPE svg PUBLIC "-//W3C//DTD SVG 20010904//EN"
 "http://www.w3.org/TR/2001/REC-SVG-20010904/DTD/svg10.dtd">
<svg version="1.0" xmlns="http://www.w3.org/2000/svg"
 width="512.000000pt" height="512.000000pt" viewBox="0 0 512.000000 512.000000"
 preserveAspectRatio="xMidYMid meet">

<g transform="translate(0.000000,512.000000) scale(0.100000,-0.100000)"
fill="#000000" stroke="none">
<path d="M2610 5109 c-392 -36 -734 -171 -1020 -402 -109 -88 -316 -299 -389
-395 -223 -295 -357 -638 -400 -1025 -6 -48 -14 -93 -18 -100 -4 -7 -145 -216
-315 -465 -267 -395 -308 -460 -318 -509 -28 -132 33 -253 155 -309 46 -22 64
-24 207 -24 l157 0 3 -432 c3 -423 4 -434 26 -498 13 -35 36 -85 50 -110 41
-69 149 -171 222 -208 115 -58 157 -62 643 -62 l437 0 0 -285 0 -285 935 0
935 0 0 538 c0 501 1 540 18 554 9 8 51 35 92 61 243 149 520 479 689 821 333
669 357 1399 67 2020 -244 523 -797 931 -1451 1072 -204 44 -513 63 -725 43z
m312 -785 c206 -169 411 -447 488 -661 13 -35 28 -63 34 -63 6 0 38 7 71 15
40 10 138 18 289 22 l228 6 -5 -259 c-4 -230 -7 -267 -26 -334 -115 -388 -423
-668 -810 -735 -59 -11 -160 -15 -348 -15 -228 0 -279 3 -366 21 -302 61 -557
251 -696 518 -95 182 -121 313 -121 605 l0 199 228 -6 c146 -4 252 -12 297
-22 38 -8 73 -15 77 -15 3 0 12 17 18 38 18 56 101 218 155 300 54 85 170 226
241 294 51 48 166 147 173 148 2 0 35 -25 73 -56z"/>
<path d="M2803 3926 c-103 -113 -218 -306 -244 -410 l-12 -50 34 -25 c66 -49
172 -157 216 -218 25 -35 48 -63 52 -63 4 0 15 14 25 30 33 57 134 165 205
220 39 30 71 63 71 72 0 26 -47 146 -82 208 -39 70 -119 181 -175 242 l-42 46
-48 -52z"/>
<path d="M1963 3327 c-10 -16 8 -147 29 -216 59 -195 190 -348 373 -436 93
-45 209 -75 291 -75 l46 0 -6 68 c-19 188 -80 318 -210 447 -108 107 -207 167
-323 195 -91 22 -191 31 -200 17z"/>
<path d="M3635 3330 c-246 -28 -470 -193 -574 -422 -33 -72 -61 -194 -61 -264
l0 -47 78 6 c97 8 217 45 302 94 36 21 101 74 145 118 65 65 90 98 128 175 26
53 54 126 62 165 19 89 20 186 3 184 -7 -1 -44 -5 -83 -9z"/>
</g>
</svg>
