<?xml version="1.0" standalone="no"?>
<!DOCTYPE svg PUBLIC "-//W3C//DTD SVG 20010904//EN"
 "http://www.w3.org/TR/2001/REC-SVG-20010904/DTD/svg10.dtd">
<svg version="1.0" xmlns="http://www.w3.org/2000/svg"
 width="512.000000pt" height="512.000000pt" viewBox="0 0 512.000000 512.000000"
 preserveAspectRatio="xMidYMid meet">

<g transform="translate(0.000000,512.000000) scale(0.100000,-0.100000)"
fill="#000000" stroke="none">
<path d="M504 4800 c-348 -91 -564 -438 -488 -783 9 -40 34 -110 56 -157 33
-69 57 -101 127 -171 70 -70 102 -94 171 -127 148 -71 324 -90 460 -49 l45 13
3 267 2 267 1685 0 1685 0 0 -269 0 -269 48 -12 c143 -37 306 -18 452 52 69
33 101 57 171 127 70 70 94 102 127 171 94 196 95 399 3 585 -91 182 -243 306
-439 356 -73 18 -130 19 -2056 18 -1901 0 -1984 -1 -2052 -19z"/>
<path d="M1180 3490 l0 -270 1385 0 1385 0 0 270 0 270 -1385 0 -1385 0 0
-270z"/>
<path d="M1482 2023 l3 -896 250 -94 c137 -51 251 -93 252 -93 2 0 3 445 3
990 l0 990 -255 0 -255 0 2 -897z"/>
<path d="M2290 1873 l0 -1048 253 -94 c138 -52 258 -96 265 -98 9 -4 12 228
12 1141 l0 1146 -265 0 -265 0 0 -1047z"/>
<path d="M3120 1717 l0 -1202 278 -104 c152 -57 283 -106 290 -108 9 -4 12
261 12 1306 l0 1311 -290 0 -290 0 0 -1203z"/>
</g>
</svg>
